<?xml version="1.0" standalone="no"?>
<!DOCTYPE svg PUBLIC "-//W3C//DTD SVG 20010904//EN"
 "http://www.w3.org/TR/2001/REC-SVG-20010904/DTD/svg10.dtd">
<svg version="1.0" xmlns="http://www.w3.org/2000/svg"
 width="1216.000000pt" height="1216.000000pt" viewBox="0 0 1216.000000 1216.000000"
 preserveAspectRatio="xMidYMid meet">
<metadata>
Created by potrace 1.11, written by Peter Selinger 2001-2013
</metadata>
<g transform="translate(0.000000,1216.000000) scale(0.100000,-0.100000)"
fill="#000000" stroke="none">
<path d="M2749 12033 c-1 -10 -2 -28 -3 -40 0 -12 -4 -25 -8 -28 -4 -4 -3 -16
3 -26 5 -11 6 -19 1 -19 -10 0 -10 -431 1 -447 5 -8 4 -13 -3 -13 -6 0 -8 -5
-5 -10 3 -6 8 -32 10 -58 5 -70 42 -300 59 -367 2 -11 12 -50 20 -87 9 -37 33
-116 52 -175 20 -60 37 -112 39 -118 13 -58 160 -363 221 -460 14 -22 27 -48
31 -57 3 -10 9 -18 13 -18 4 0 12 -11 18 -25 7 -14 16 -31 22 -38 6 -7 38 -50
72 -97 34 -47 64 -87 68 -90 3 -3 24 -27 45 -55 85 -107 327 -337 430 -410 16
-11 40 -29 54 -41 43 -35 149 -104 160 -104 5 0 11 -4 13 -8 4 -9 146 -92 158
-92 4 0 13 -7 20 -15 7 -8 16 -12 21 -9 5 3 9 0 9 -5 0 -6 4 -11 9 -11 5 0 42
-15 83 -34 178 -82 448 -172 606 -202 12 -2 34 -7 50 -10 44 -9 85 -15 122
-19 19 -2 35 -4 35 -5 0 -1 11 -4 25 -5 14 -2 43 -6 65 -9 22 -3 101 -8 175
-12 159 -7 5209 -11 5211 -4 5 21 10 94 14 205 3 72 7 138 9 148 2 9 1 17 -4
17 -4 0 -4 16 0 34 4 19 6 37 4 39 -3 2 -6 49 -9 103 -5 113 -13 188 -30 284
-2 14 -7 41 -10 60 -3 19 -12 64 -20 100 -9 36 -17 74 -18 85 -2 11 -7 31 -12
45 -5 14 -9 30 -10 35 -3 36 -65 219 -112 335 -44 107 -128 276 -182 364 -22
38 -41 72 -41 77 0 5 -4 9 -9 9 -5 0 -11 8 -15 18 -6 18 -24 48 -41 68 -5 6
-19 24 -30 40 -38 53 -90 121 -130 170 -67 82 -295 305 -380 373 -44 34 -89
70 -100 79 -56 47 -264 173 -389 237 -141 72 -366 165 -438 181 -5 1 -11 3
-15 4 -5 1 -11 2 -15 1 -5 0 -8 4 -8 10 0 5 -4 8 -9 5 -5 -3 -27 1 -50 9 -23
8 -41 12 -41 9 0 -2 -9 0 -19 6 -11 5 -35 12 -53 15 -18 2 -51 9 -73 14 -22 6
-41 10 -42 11 -2 0 -4 0 -5 1 -12 3 -52 9 -98 15 -30 3 -57 7 -60 9 -4 2 -30
5 -59 6 -28 2 -54 6 -57 10 -3 5 -1206 9 -2674 9 -2546 0 -2670 0 -2671 -17z"/>
<path d="M5330 8409 c-30 -3 -72 -5 -93 -5 -20 1 -37 -1 -37 -4 0 -3 -12 -7
-27 -8 -36 -2 -101 -11 -133 -17 -47 -9 -105 -18 -122 -19 -10 0 -18 -3 -18
-6 0 -3 -10 -6 -22 -7 -62 -3 -449 -119 -563 -169 -22 -10 -42 -18 -45 -19
-58 -17 -387 -185 -487 -248 -24 -15 -47 -27 -53 -27 -5 0 -10 -4 -10 -9 0 -5
-13 -14 -28 -20 -15 -7 -39 -22 -53 -35 -14 -13 -36 -29 -49 -36 -23 -12 -170
-118 -180 -129 -3 -4 -21 -18 -40 -32 -36 -28 -45 -35 -145 -122 -79 -69 -266
-257 -335 -336 -30 -35 -60 -69 -65 -75 -6 -6 -33 -40 -60 -76 -28 -36 -53
-67 -56 -70 -10 -9 -145 -204 -164 -237 -11 -18 -24 -33 -29 -33 -5 0 -6 -3
-3 -7 4 -3 -4 -21 -18 -38 -13 -18 -21 -35 -18 -39 4 -3 1 -6 -5 -6 -7 0 -12
-6 -12 -14 0 -8 -3 -16 -7 -18 -5 -1 -19 -25 -33 -53 -14 -27 -27 -52 -30 -55
-12 -11 -120 -242 -120 -256 0 -8 -4 -14 -10 -14 -5 0 -10 -7 -10 -15 0 -8 -9
-34 -20 -58 -23 -51 -51 -127 -52 -144 -1 -7 -5 -13 -10 -13 -4 0 -7 -3 -6 -7
4 -14 -26 -103 -35 -103 -4 0 -6 -4 -3 -9 3 -5 -1 -28 -9 -52 -9 -23 -22 -72
-31 -108 -9 -36 -18 -75 -20 -86 -14 -56 -24 -109 -40 -200 -2 -11 -6 -31 -9
-45 -7 -34 -21 -172 -30 -280 -2 -30 -5 -55 -6 -55 -1 0 -3 -13 -4 -30 -1 -16
-6 -57 -9 -90 -9 -68 -13 -107 -21 -185 -6 -57 -11 -107 -20 -175 -4 -39 -12
-110 -20 -190 -2 -22 -4 -40 -5 -40 -1 0 -7 -52 -15 -140 -3 -33 -7 -71 -9
-85 -3 -14 -7 -54 -10 -90 -4 -36 -8 -81 -11 -100 -2 -19 -7 -60 -10 -90 -3
-30 -7 -66 -9 -80 -2 -14 -7 -56 -10 -95 -7 -75 -14 -141 -21 -190 -8 -60 -20
-169 -30 -275 -3 -30 -7 -71 -9 -90 -3 -19 -7 -62 -11 -95 -3 -33 -8 -76 -10
-95 -6 -46 -14 -114 -20 -170 -2 -25 -7 -65 -10 -90 -3 -25 -8 -67 -10 -95 -3
-27 -8 -66 -10 -85 -3 -19 -7 -62 -10 -95 -3 -33 -7 -76 -10 -95 -2 -19 -7
-62 -11 -95 -8 -83 -10 -101 -19 -175 -4 -36 -9 -76 -10 -90 -5 -53 -16 -157
-21 -193 -3 -21 -7 -61 -10 -90 -2 -29 -6 -65 -8 -82 -2 -16 -7 -57 -10 -90
-4 -33 -9 -78 -12 -100 -2 -22 -6 -60 -9 -85 -2 -25 -7 -72 -10 -105 -4 -33
-8 -71 -10 -85 -1 -14 -6 -54 -10 -90 -4 -36 -9 -76 -10 -90 -3 -24 -14 -122
-21 -185 -2 -16 -6 -57 -9 -91 -3 -33 -8 -71 -10 -84 -3 -14 -7 -59 -10 -101
-3 -42 -8 -87 -10 -100 -5 -24 -16 -141 -19 -189 -1 -24 0 -25 69 -24 85 1
280 13 297 18 7 3 38 7 68 10 30 3 80 10 110 16 30 6 71 13 90 16 19 3 44 8
55 11 11 4 25 8 30 9 73 16 80 17 175 43 88 24 303 97 343 117 15 8 27 12 27
9 0 -4 12 1 28 9 15 8 104 51 197 97 94 45 172 86 173 90 2 5 9 9 16 9 7 0 40
17 72 39 33 21 64 40 70 42 11 5 187 121 194 129 3 3 21 16 40 30 19 13 40 28
45 32 6 5 35 27 65 50 30 24 60 47 66 53 6 5 35 30 65 55 56 46 321 309 374
371 110 127 295 371 295 389 0 5 4 10 9 10 5 0 16 15 25 33 20 39 39 70 47 77
12 11 89 147 89 158 0 7 5 12 10 12 6 0 10 4 10 10 0 5 13 31 28 57 16 26 29
50 29 53 1 3 18 41 38 85 44 95 96 216 99 230 1 6 14 42 28 80 26 67 67 191
72 218 2 6 5 19 9 27 6 19 26 97 32 128 2 13 6 31 9 40 3 9 8 31 11 47 3 17 8
40 10 53 14 65 16 80 21 117 3 22 7 51 10 65 2 14 7 45 9 70 3 25 7 65 10 90
3 25 7 68 10 95 3 28 8 70 11 95 6 46 9 72 18 170 3 30 6 55 6 55 1 0 3 18 6
40 2 22 6 63 9 90 3 28 7 70 10 95 2 25 6 63 9 85 10 73 19 169 20 212 1 24 3
43 6 43 3 0 6 8 6 18 1 21 14 147 19 182 2 14 6 55 10 92 3 37 8 76 10 87 2
12 7 54 10 94 3 39 8 86 10 102 2 17 6 53 9 80 3 28 8 70 11 94 2 24 7 46 9
49 3 3 472 6 1043 7 571 2 1052 5 1068 8 17 2 62 8 100 12 39 5 72 9 75 10 3
1 30 5 60 9 30 4 71 12 90 16 19 5 51 12 70 15 40 7 108 23 130 32 8 3 24 7
35 8 11 2 45 10 75 19 30 9 62 19 70 21 8 2 42 13 75 25 33 11 65 22 70 24 6
2 19 7 30 11 11 4 54 21 95 37 41 17 99 41 128 54 29 13 57 24 62 24 6 0 10 5
10 10 0 6 5 10 11 10 11 0 114 50 165 80 17 10 51 29 75 42 125 67 457 295
467 320 2 4 10 8 17 8 7 0 15 4 17 9 2 4 35 35 73 67 39 32 79 68 91 79 147
140 282 280 359 375 20 25 44 54 54 65 9 11 30 38 46 60 17 22 34 44 38 50 4
5 25 35 47 65 22 30 44 60 50 67 5 7 10 15 10 18 0 8 43 68 55 77 6 4 6 8 2 8
-4 0 -3 6 3 13 20 24 56 83 71 115 7 17 17 32 21 32 5 0 8 4 8 9 0 4 17 39 38
77 38 70 143 290 147 309 1 5 8 24 15 40 26 62 93 251 95 270 2 11 4 21 5 23
2 1 3 5 5 10 1 4 4 14 8 22 15 38 56 213 52 220 -3 5 0 12 6 15 5 4 8 13 5 21
-3 8 -2 14 2 14 4 0 8 8 8 18 1 9 4 33 8 52 4 19 9 49 11 65 3 17 6 41 9 55 2
14 7 48 10 75 l6 51 -2612 -1 c-1437 0 -2638 -3 -2668 -6z"/>
</g>
</svg>
